<svg width="60" height="64" viewBox="0 0 60 64" fill="none" xmlns="http://www.w3.org/2000/svg">
<path d="M21.8901 4.75963C21.4781 4.8068 21.3236 4.75963 21.1691 4.8068C11.7447 9.99604 5.3587 17.3553 2.9382 27.262C2.32021 29.7623 2.4232 32.3569 3.1442 34.9044C4.63769 40.3766 9.63318 44.1506 15.7617 44.4808C18.9546 44.6695 22.0446 44.3393 24.8256 42.7354C25.0316 41.3673 25.1861 39.9992 25.4951 38.7255C26.0101 36.6498 27.1946 34.9515 29.3061 33.9137C30.8511 33.1117 32.3961 33.1117 33.2201 33.8665C34.3016 34.8572 34.3016 36.1781 33.6321 37.2631C32.7051 38.7727 31.5721 40.1879 30.3876 41.5088C29.6151 42.358 28.5851 43.0656 27.6581 43.7732C28.5336 49.104 34.0441 51.3684 40.6361 49.1511C40.8421 48.3964 41.0481 47.5944 41.3056 46.8396C42.3356 44.0563 44.2411 41.9334 47.331 40.9427C48.5155 40.5653 49.803 40.4238 50.833 41.4145C51.6055 42.1693 51.6055 43.4902 50.7815 44.8111C49.4425 46.8868 47.434 48.3492 45.271 49.6229C44.4986 50.0475 43.7261 50.472 42.9536 50.8494C43.9836 59.105 52.069 64.9547 60 61.6525C59.9485 62.2658 60 62.7847 59.794 63.0677C59.5365 63.3979 58.97 63.5866 58.5065 63.681C54.129 64.4358 50.0605 63.964 46.7131 61.0392C44.1896 58.8692 42.4901 56.2274 41.3571 53.2082C41.2026 52.7836 41.0481 52.359 40.8421 51.9345C40.8421 51.8873 40.7391 51.8401 40.5331 51.6986C40.0696 51.7458 39.5031 51.7458 38.9366 51.8401C32.0356 52.8308 28.4306 51.1325 25.2376 45.2356C24.6196 45.4243 23.8986 45.613 23.2291 45.8489C19.2636 47.0755 15.2981 47.1698 11.2812 45.9433C4.74069 43.9619 0.517709 38.8199 0.0542103 32.3097C-0.203289 28.7716 0.466208 25.375 1.8567 22.0728C5.25569 14.1002 10.8177 7.82599 19.1606 3.72178C19.5726 3.48591 20.0361 3.29721 20.4481 3.06134C20.4996 3.01416 20.5511 2.91981 20.7056 2.63676C18.9546 2.25936 17.3066 2.40089 15.6586 2.49524C14.0622 2.54241 12.4142 2.68393 10.6632 2.77828C10.8177 1.55174 11.5387 1.07999 12.4142 0.796945C13.4442 0.513896 14.4742 0.136494 15.5042 0.0893196C18.2851 -0.00503008 21.1176 -0.0522049 23.9501 0.0893196C26.1646 0.230844 26.7826 1.31587 25.8041 2.96699C23.6926 6.45793 21.5296 9.94886 19.3666 13.4398C19.0061 14.0059 18.5426 14.4776 17.9761 15.1381C16.9976 14.1002 17.4096 13.3455 17.7701 12.6378C19.2121 10.0904 20.4996 7.54294 21.8901 4.75963ZM49.288 42.8297C45.7346 43.2543 43.5201 45.33 43.3656 48.2548C45.7346 46.8396 48.0005 45.5659 49.288 42.8297ZM31.8811 35.5176C28.8426 36.1781 27.4006 38.0651 27.7096 40.9427C29.6666 39.4331 31.3661 38.0179 31.8811 35.5176Z" fill="#FF5E00"/>
</svg>
