<svg width="16" height="16" viewBox="0 0 16 16" fill="none" xmlns="http://www.w3.org/2000/svg">
<path d="M4.33345 9H1.00034V13.4998C0.995452 13.6978 1.04384 13.8945 1.1426 14.0781C1.24136 14.2618 1.38848 14.4286 1.57515 14.5686C1.76181 14.7086 1.9842 14.819 2.22902 14.893C2.47384 14.9671 2.73606 15.0034 3 14.9997" stroke="#FF6E05" stroke-linecap="round" stroke-linejoin="round"/>
<path d="M4.38459 1V13.4998C4.38797 13.6978 4.35447 13.8945 4.28608 14.0781C4.2177 14.2617 4.11584 14.4286 3.98658 14.5686C3.85733 14.7086 3.70335 14.8189 3.53383 14.893C3.36432 14.9671 3.18276 15.0034 3 14.9997H13.6152C13.7979 15.0034 13.9795 14.9671 14.149 14.893C14.3185 14.8189 14.4725 14.7086 14.6018 14.5686C14.731 14.4286 14.8329 14.2617 14.9013 14.0781C14.9696 13.8945 15.0031 13.6978 14.9998 13.4998V1H4.38459Z" stroke="#FF6E05" stroke-linecap="round" stroke-linejoin="round"/>
<path d="M12.7002 3H6.7002V6H12.7002V3Z" stroke="#FF6E05" stroke-linecap="round" stroke-linejoin="round"/>
<path d="M12.7002 12H6.7002" stroke="#FF6E05" stroke-linecap="round" stroke-linejoin="round"/>
<path d="M12.7002 9H6.7002" stroke="#FF6E05" stroke-linecap="round" stroke-linejoin="round"/>
</svg>
