<svg width="28" height="28" viewBox="0 0 28 28" fill="none" xmlns="http://www.w3.org/2000/svg">
<path d="M22.727 16.8571L20.7634 10.8C20.7027 10.5743 20.5746 10.3749 20.3979 10.231C20.2213 10.087 20.0053 10.0061 19.7815 10H8.21792C7.99418 10.0061 7.77818 10.087 7.60152 10.231C7.42486 10.3749 7.29681 10.5743 7.2361 10.8L5.27246 16.8571" stroke="#FF5E00" stroke-width="2" stroke-linecap="round" stroke-linejoin="round"/>
<path d="M24.9094 23.7143H3.0912V19.6C3.08721 19.4498 3.1144 19.3005 3.17091 19.1624C3.22742 19.0242 3.31189 18.9006 3.41848 18.8L5.27302 16.8572H22.7276L24.5821 18.8C24.6887 18.9006 24.7732 19.0242 24.8297 19.1624C24.8862 19.3005 24.9134 19.4498 24.9094 19.6V23.7143Z" stroke="#FF5E00" stroke-width="2" stroke-linecap="round" stroke-linejoin="round"/>
<path d="M7.45419 21.4285C8.05668 21.4285 8.5451 20.9169 8.5451 20.2857C8.5451 19.6545 8.05668 19.1428 7.45419 19.1428C6.8517 19.1428 6.36328 19.6545 6.36328 20.2857C6.36328 20.9169 6.8517 21.4285 7.45419 21.4285Z" fill="#FF5E00"/>
<path d="M20.546 21.4285C21.1485 21.4285 21.6369 20.9169 21.6369 20.2857C21.6369 19.6545 21.1485 19.1428 20.546 19.1428C19.9435 19.1428 19.4551 19.6545 19.4551 20.2857C19.4551 20.9169 19.9435 21.4285 20.546 21.4285Z" fill="#FF5E00"/>
<path d="M2 7.71429L14 2L26 7.71429" stroke="#FF5E00" stroke-width="2" stroke-linecap="round" stroke-linejoin="round"/>
<path d="M7.45543 23.7144H3.0918V26.0001H7.45543V23.7144Z" stroke="#FF5E00" stroke-width="2" stroke-linecap="round" stroke-linejoin="round"/>
<path d="M24.9095 23.7144H20.5459V26.0001H24.9095V23.7144Z" stroke="#FF5E00" stroke-width="2" stroke-linecap="round" stroke-linejoin="round"/>
</svg>
