<svg width="104" height="48" viewBox="0 0 104 48" fill="none" xmlns="http://www.w3.org/2000/svg">
<path d="M83.1097 36.4952C81.8241 36.4952 80.5812 36.3247 79.3812 35.8986C78.1813 35.5151 77.2384 35.0038 76.5527 34.322V28.7401C77.4956 30.5723 78.6098 31.9785 79.8098 32.9585C81.0098 33.9811 82.2098 34.4499 83.4526 34.4499C84.3097 34.4499 85.0383 34.2368 85.5954 33.7255C86.1525 33.2568 86.4525 32.6176 86.4525 31.7654C86.4525 31.0836 86.1954 30.4871 85.6811 29.9758C85.1668 29.4644 84.0954 28.8679 82.424 28.1861C80.1955 27.3339 78.6955 26.4391 78.0098 25.5869C77.2813 24.7347 76.9384 23.6694 76.9384 22.3911C76.9384 20.6867 77.5813 19.2806 78.867 18.0875C80.1527 16.8944 81.6955 16.2979 83.5383 16.2979C84.3097 16.2979 85.0383 16.4683 85.8097 16.724C86.5811 17.0222 87.2239 17.4057 87.7811 17.8318L90.0953 16.2979V23.6268C88.8525 21.7946 87.7382 20.4737 86.7097 19.6215C85.6811 18.7693 84.6954 18.3431 83.7526 18.3431C82.9812 18.3431 82.3812 18.5562 81.9098 18.9823C81.4383 19.4084 81.2241 20.005 81.2241 20.6867C81.2241 21.3259 81.4384 21.8798 81.9526 22.3485C82.424 22.8172 83.4955 23.3712 85.1668 24.0103C87.4811 24.9478 89.0239 25.8852 89.7953 26.78C90.5667 27.7174 90.9524 28.7827 90.9524 30.061C90.9524 31.8932 90.181 33.4272 88.6811 34.6629C87.1382 35.8986 85.2954 36.4952 83.1097 36.4952Z" fill="white"/>
<path d="M55.6348 34.1519V21.5819L52.292 18.9826L60.6918 15.8721V19.5792H61.4632C62.5775 18.4287 63.6489 17.5765 64.6775 17.0652C65.706 16.5538 66.7346 16.2982 67.8488 16.2982C69.5202 16.2982 70.8488 16.8947 71.8345 18.0026C72.7773 19.1105 73.2916 20.6444 73.2916 22.5619V34.1519L75.9487 36.0694H65.5774L68.2345 34.1519V23.9254C68.2345 22.5619 67.8488 21.5392 67.1631 20.7723C66.4774 20.0479 65.4917 19.6644 64.206 19.6644C63.6489 19.6644 63.0918 19.7922 62.4918 20.0479C61.8918 20.3035 61.2918 20.6444 60.6918 21.1558V34.1519L63.3061 36.0694H52.9777L55.6348 34.1519Z" fill="white"/>
<path d="M43.9862 24.9051V22.7746C43.9862 21.2407 43.5148 20.1328 42.6577 19.4936C41.8006 18.8971 40.5149 18.7266 38.8435 19.0675V23.4564H33.5293C34.215 21.4963 35.6293 19.8345 37.6864 18.4284C39.7435 17.0222 41.8006 16.2979 43.9434 16.2979C45.4005 16.2979 46.6005 16.8092 47.5004 17.7892C48.4004 18.7693 48.8718 20.0902 48.8718 21.7094V30.7854C48.8718 31.5097 49.0004 32.0637 49.3433 32.4472C49.6861 32.8307 50.1575 33.0011 50.7575 33.0011C51.1432 33.0011 51.5289 32.9159 51.8718 32.7454C52.2146 32.575 52.5146 32.362 52.7718 32.0211C52.7718 33.2994 52.3003 34.322 51.4004 35.1742C50.5004 36.0264 49.429 36.4099 48.1433 36.4099C47.1576 36.4099 46.3005 36.1543 45.6148 35.643C44.8862 35.1316 44.3719 34.4499 44.0291 33.5124H43.3862C42.5291 34.4499 41.672 35.1742 40.772 35.643C39.872 36.1543 38.972 36.3673 38.0292 36.3673C36.8292 36.3673 35.8007 35.9838 34.9864 35.2168C34.1293 34.4499 33.7436 33.5124 33.7436 32.3193C33.7436 31.1689 34.1721 30.1462 35.0293 29.2514C35.8864 28.3992 37.3006 27.547 39.272 26.78L43.9862 24.9051ZM43.9862 32.1063V26.4391L42.1006 27.2487C40.7292 27.8453 39.7863 28.4418 39.272 28.9531C38.7578 29.5071 38.5435 30.1888 38.5435 30.9558C38.5435 31.6802 38.7578 32.2341 39.2292 32.6602C39.7006 33.0863 40.3434 33.2568 41.1149 33.2568C41.6291 33.2568 42.1005 33.1716 42.6148 33.0011C43.0862 32.8307 43.5577 32.5324 43.9862 32.1063Z" fill="white"/>
<path d="M22.5415 36.0691C24.2353 34.8662 25.2415 32.9175 25.2415 30.8401V8.24452L21.2559 5.73051L30.2985 2.83301V30.8749C30.2985 32.9326 31.2871 34.865 32.9556 36.0691H22.5415Z" fill="white"/>
<path d="M3.29993 46.0826V21.5816L0 18.9824L8.35697 15.8718V19.025H9.04267C9.94266 18.1728 10.9284 17.491 11.9569 17.0223C12.9855 16.5536 14.014 16.2979 15.0854 16.2979C17.4854 16.2979 19.4567 17.1927 20.9996 18.8972C22.5424 20.6442 23.3138 22.8173 23.3138 25.4592C23.3138 28.5697 22.2424 31.1689 20.1424 33.2995C17.9996 35.43 15.514 36.4952 12.6426 36.4952C11.8283 36.4952 11.0569 36.4526 10.3712 36.2822C9.64266 36.1544 8.95696 35.9413 8.35697 35.6856V46.0826L12.5997 48H0.6857L3.29993 46.0826ZM8.35697 20.559V32.362C8.69982 33.0864 9.2141 33.6403 9.8998 34.0664C10.5855 34.4926 11.3998 34.663 12.2997 34.663C14.014 34.663 15.4283 34.0238 16.4997 32.6603C17.5711 31.3394 18.1282 29.5071 18.1282 27.2062C18.1282 24.82 17.4854 22.9025 16.2425 21.4964C14.9997 20.0903 13.3283 19.3659 11.2712 19.3659C10.6712 19.3659 10.1141 19.4937 9.55695 19.7068C8.99982 19.9624 8.61411 20.2181 8.35697 20.559Z" fill="white"/>
<path d="M95.6894 2.83301L97.934 8.86411L104 11.0958L97.934 13.3275L95.6894 19.3586L93.4448 13.3275L87.3789 11.0958L93.4448 8.86411L95.6894 2.83301Z" fill="#FF6E05"/>
<path d="M88.5668 0L89.657 2.92939L92.6033 4.01337L89.657 5.09734L88.5668 8.02673L87.4766 5.09734L84.5303 4.01337L87.4766 2.92939L88.5668 0Z" fill="#FF6E05"/>
</svg>
