<svg width="24" height="24" viewBox="0 0 24 24" fill="none" xmlns="http://www.w3.org/2000/svg">
<path d="M13.8174 7.61185L11.8429 9.61526C11.161 10.3069 10.2363 10.6955 9.27211 10.6955C8.30791 10.6955 7.38318 10.3069 6.70128 9.61526L6.54492 9.45661L11.0257 4.9102C12.2313 3.68726 13.8662 3.00024 15.571 3.00024C17.2758 3.00024 18.9107 3.68726 20.1163 4.9102C21.1287 5.93755 21.7743 7.27835 21.9506 8.72011C22.127 10.1619 21.8241 11.6221 21.0899 12.8694" stroke="#FF5E00" stroke-width="2" stroke-linecap="round" stroke-linejoin="round"/>
<path d="M14.9684 10.6244L18.2528 13.957C18.7641 14.4759 19.0513 15.1796 19.0513 15.9133C19.0513 16.6471 18.7641 17.3508 18.2528 17.8697L16.7656 19.3787C16.2591 19.8927 15.6578 20.3005 14.996 20.5786C14.3342 20.8568 13.6248 21 12.9085 21C12.1921 21 11.4828 20.8568 10.8209 20.5786C10.1591 20.3005 9.5578 19.8927 9.0513 19.3787L3.88238 14.1341C2.67709 12.9108 2 11.2519 2 9.52215C2 7.79242 2.67709 6.13352 3.88238 4.91025C5.07074 3.70111 6.68026 3.01493 8.36315 3" stroke="#FF5E00" stroke-width="2" stroke-linecap="round" stroke-linejoin="round"/>
<path d="M17.8096 18.3197L14.2725 14.7317" stroke="#FF5E00" stroke-width="2" stroke-linecap="round" stroke-linejoin="round"/>
<path d="M15.1934 20.493L11.8936 17.1448" stroke="#FF5E00" stroke-width="2" stroke-linecap="round" stroke-linejoin="round"/>
</svg>
