<svg width="48" height="48" viewBox="0 0 48 48" fill="none" xmlns="http://www.w3.org/2000/svg">
<path d="M38 46H27V44H38C39.3256 43.9984 40.5964 43.4711 41.5338 42.5338C42.4711 41.5964 42.9984 40.3256 43 39V32H45V39C44.9979 40.8559 44.2597 42.6351 42.9474 43.9474C41.6351 45.2597 39.8559 45.9979 38 46Z" fill="#666666"/>
<path d="M23.19 1.01498C11.826 1.44498 3 11.143 3 22.516V34C3 35.3261 3.52678 36.5978 4.46447 37.5355C5.40215 38.4732 6.67392 39 8 39H11C11.7956 39 12.5587 38.6839 13.1213 38.1213C13.6839 37.5587 14 36.7956 14 36V26C14 25.2043 13.6839 24.4413 13.1213 23.8787C12.5587 23.3161 11.7956 23 11 23H6V22.442C6 12.694 13.565 4.38098 23.306 4.01298C25.7258 3.92227 28.139 4.32021 30.4016 5.18304C32.6641 6.04587 34.7295 7.35587 36.4745 9.03481C38.2194 10.7137 39.608 12.7272 40.5574 14.9548C41.5068 17.1824 41.9974 19.5785 42 22V23H36C35.2043 23 34.4413 23.3161 33.8787 23.8787C33.3161 24.4413 33 25.2043 33 26V36C33 36.7956 33.3161 37.5587 33.8787 38.1213C34.4413 38.6839 35.2043 39 36 39H40C41.3261 39 42.5979 38.4732 43.5355 37.5355C44.4732 36.5978 45 35.3261 45 34V22C44.9969 19.1749 44.4244 16.3794 43.3167 13.7806C42.2091 11.1817 40.589 8.83273 38.5532 6.87398C36.5175 4.91522 34.1078 3.38687 31.4682 2.38021C28.8285 1.37354 26.0131 0.909222 23.19 1.01498Z" fill="#666666"/>
<path d="M12 23C12.7956 23 13.5587 23.3161 14.1213 23.8787C14.6839 24.4413 15 25.2044 15 26V36C15 36.7956 14.6839 37.5587 14.1213 38.1213C13.5587 38.6839 12.7956 39 12 39H8C6.67392 39 5.40215 38.4732 4.46447 37.5355C3.52678 36.5979 3 35.3261 3 34V23H12Z" fill="#999999"/>
<path d="M12 23H10V39H12C12.7956 39 13.5587 38.6839 14.1213 38.1213C14.6839 37.5587 15 36.7956 15 36V26C15 25.2044 14.6839 24.4413 14.1213 23.8787C13.5587 23.3161 12.7956 23 12 23Z" fill="#444444"/>
<path d="M36 23C35.2044 23 34.4413 23.3161 33.8787 23.8787C33.3161 24.4413 33 25.2044 33 26V36C33 36.7956 33.3161 37.5587 33.8787 38.1213C34.4413 38.6839 35.2044 39 36 39H40C41.3261 39 42.5979 38.4732 43.5355 37.5355C44.4732 36.5979 45 35.3261 45 34V23H36Z" fill="#999999"/>
<path d="M36 23H38V39H36C35.2044 39 34.4413 38.6839 33.8787 38.1213C33.3161 37.5587 33 36.7956 33 36V26C33 25.2044 33.3161 24.4413 33.8787 23.8787C34.4413 23.3161 35.2044 23 36 23Z" fill="#444444"/>
<path d="M33.897 41.988H24C23.4477 41.988 23 42.4358 23 42.988V46.013C23 46.5653 23.4477 47.013 24 47.013H33.897C34.4493 47.013 34.897 46.5653 34.897 46.013V42.988C34.897 42.4358 34.4493 41.988 33.897 41.988Z" fill="#444444"/>
</svg>
