<svg width="14" height="14" viewBox="0 0 14 14" fill="none" xmlns="http://www.w3.org/2000/svg">
<path d="M11.437 7.44989H11.4239C10.9153 7.44105 10.4157 7.30494 9.96555 7.05254C9.50884 7.31194 8.99945 7.44836 8.48183 7.44989C7.96505 7.44374 7.45706 7.30677 6.99981 7.05029C6.54391 7.3126 6.03386 7.44995 5.51567 7.44995C4.99747 7.44995 4.48743 7.3126 4.03153 7.05029C3.58664 7.30031 3.09338 7.4371 2.59049 7.44989C2.3681 7.44911 2.14637 7.42423 1.92871 7.37564V13.2999C1.92871 13.4193 1.97323 13.5337 2.05249 13.6181C2.13174 13.7025 2.23922 13.7499 2.3513 13.7499H5.73203V10.5999H8.26758V13.7499H11.6483C11.7604 13.7499 11.8679 13.7025 11.9471 13.6181C12.0264 13.5337 12.0709 13.4193 12.0709 13.2999V7.38059C11.8623 7.42631 11.65 7.44953 11.437 7.44989Z" fill="white"/>
<path d="M13.666 4.03001L11.1414 0.43C11.102 0.374112 11.051 0.32875 10.9923 0.297508C10.9336 0.266265 10.8689 0.25 10.8033 0.25H3.19668C3.13107 0.25 3.06637 0.266265 3.00769 0.297508C2.94901 0.32875 2.89797 0.374112 2.8586 0.43L0.334042 4.03001C0.270049 4.1216 0.240917 4.23556 0.252482 4.34906C0.315983 4.95604 0.587993 5.51658 1.0162 5.92289C1.4444 6.32919 1.99856 6.55255 2.57209 6.55002C3.10705 6.53761 3.62264 6.33447 4.03636 5.97311C4.45358 6.34659 4.98137 6.55094 5.52642 6.55002C6.06517 6.54314 6.58537 6.33949 7 5.97311C7.41638 6.3402 7.93853 6.54386 8.47907 6.55002C9.02116 6.55029 9.54591 6.3466 9.96067 5.97491C10.3772 6.33969 10.898 6.54252 11.4372 6.55002C12.0091 6.55012 12.5609 6.32572 12.9871 5.91974C13.4134 5.51376 13.6841 4.95471 13.7475 4.34951C13.7592 4.23586 13.7301 4.12172 13.666 4.03001Z" fill="white"/>
</svg>
