<svg width="162" height="226" viewBox="0 0 162 226" fill="none" xmlns="http://www.w3.org/2000/svg">
<path d="M50.2116 216.131C42.7817 225.568 26.3263 228.802 13.4574 223.353C0.588549 217.904 -3.82066 205.837 3.60919 196.399L111.788 58.9897C119.218 49.5523 135.674 46.3187 148.543 51.7674C161.411 57.2162 165.821 69.2838 158.391 78.7212L50.2116 216.131Z" fill="#FF5E00"/>
<path d="M50.2116 -79.1309C42.7817 -88.5684 26.3263 -91.8019 13.4575 -86.3532C0.588562 -80.9045 -3.82065 -68.8369 3.60921 -59.3994L111.788 78.0103C119.218 87.4477 135.674 90.6813 148.543 85.2326C161.411 79.7838 165.821 67.7162 158.391 58.2788L50.2116 -79.1309Z" fill="#FF5E00"/>
</svg>
