<svg width="162" height="209" viewBox="0 0 162 209" fill="none" xmlns="http://www.w3.org/2000/svg">
<path d="M111.788 9.86908C119.218 0.431646 135.674 -2.80187 148.543 2.64683C161.411 8.09556 165.821 20.1632 158.391 29.6006L50.2116 167.01C42.7817 176.448 26.3263 179.681 13.4574 174.233C0.588553 168.784 -3.82065 156.716 3.60921 147.279L111.788 9.86908Z" fill="#FF5E00"/>
<path d="M111.788 305.131C119.218 314.568 135.674 317.802 148.543 312.353C161.411 306.904 165.821 294.837 158.391 285.399L50.2116 147.99C42.7817 138.552 26.3263 135.319 13.4574 140.767C0.588554 146.216 -3.82065 158.284 3.60921 167.721L111.788 305.131Z" fill="#FF5E00"/>
</svg>
