<svg width="32" height="32" viewBox="0 0 32 32" fill="none" xmlns="http://www.w3.org/2000/svg">
<path d="M20.8889 16H5" stroke="#212121" stroke-width="2" stroke-linecap="round" stroke-linejoin="round"/>
<path d="M5 9.63636V4.54545C5 3.87036 5.25754 3.22291 5.71596 2.74555C6.17438 2.26818 6.79614 2 7.44444 2H24.5556C25.2039 2 25.8256 2.26818 26.284 2.74555C26.7425 3.22291 27 3.87036 27 4.54545V27.4545C27 28.1296 26.7425 28.7771 26.284 29.2545C25.8256 29.7318 25.2039 30 24.5556 30H7.44444C6.79614 30 6.17438 29.7318 5.71596 29.2545C5.25754 28.7771 5 28.1296 5 27.4545V22.3636" stroke="#212121" stroke-width="2" stroke-linecap="round" stroke-linejoin="round"/>
<path d="M14.7783 9.63635L20.8894 16L14.7783 22.3636" stroke="#212121" stroke-width="2" stroke-linecap="round" stroke-linejoin="round"/>
</svg>
