<svg width="28" height="28" viewBox="0 0 28 28" fill="none" xmlns="http://www.w3.org/2000/svg">
<path d="M13.9996 19.6C15.325 19.6 16.3995 18.5255 16.3995 17.2C16.3995 15.8746 15.325 14.8 13.9996 14.8C12.6741 14.8 11.5996 15.8746 11.5996 17.2C11.5996 18.5255 12.6741 19.6 13.9996 19.6Z" stroke="#FF5E00" stroke-width="2" stroke-linecap="round" stroke-linejoin="round"/>
<path d="M8.00014 7.59998C9.54651 7.59998 10.8001 6.34638 10.8001 4.79999C10.8001 3.2536 9.54651 2 8.00014 2C6.45377 2 5.2002 3.2536 5.2002 4.79999C5.2002 6.34638 6.45377 7.59998 8.00014 7.59998Z" stroke="#FF5E00" stroke-width="2" stroke-linecap="round" stroke-linejoin="round"/>
<path d="M10.7998 26V22H17.1997V26" stroke="#FF5E00" stroke-width="2" stroke-linecap="round" stroke-linejoin="round"/>
<path d="M6.00098 18.7998L10.8009 21.9998" stroke="#FF5E00" stroke-width="2" stroke-linecap="round" stroke-linejoin="round"/>
<path d="M21.9991 18.7998L17.1992 21.9998" stroke="#FF5E00" stroke-width="2" stroke-linecap="round" stroke-linejoin="round"/>
<path d="M2 21.2V14.8C2 13.527 2.5057 12.3061 3.40586 11.4059C4.30602 10.5057 5.5269 10 6.79991 10H9.19987C10.3809 9.9983 11.5207 10.4337 12.3998 11.2224" stroke="#FF5E00" stroke-width="2" stroke-linecap="round" stroke-linejoin="round"/>
<path d="M19.9992 7.59998C21.5455 7.59998 22.7991 6.34638 22.7991 4.79999C22.7991 3.2536 21.5455 2 19.9992 2C18.4528 2 17.1992 3.2536 17.1992 4.79999C17.1992 6.34638 18.4528 7.59998 19.9992 7.59998Z" stroke="#FF5E00" stroke-width="2" stroke-linecap="round" stroke-linejoin="round"/>
<path d="M26.0004 21.2V14.8C26.0004 13.527 25.4947 12.3061 24.5945 11.4059C23.6944 10.5057 22.4735 10 21.2005 10H18.8005C17.6195 9.9983 16.4797 10.4337 15.6006 11.2224" stroke="#FF5E00" stroke-width="2" stroke-linecap="round" stroke-linejoin="round"/>
</svg>
