<svg width="28" height="28" viewBox="0 0 28 28" fill="none" xmlns="http://www.w3.org/2000/svg">
<path d="M9.98548 2.53116C9.71991 2.48166 9.44691 2.49123 9.18533 2.55919C8.92374 2.62715 8.6798 2.75189 8.47031 2.92482C8.26083 3.09774 8.09079 3.31473 7.97193 3.56081C7.85307 3.8069 7.78821 4.07622 7.78183 4.35022C7.70732 4.93617 7.8413 5.52988 8.15966 6.0245C8.47802 6.51912 8.95985 6.88217 9.51845 7.04831C9.78403 7.0978 10.057 7.08824 10.3186 7.02028C10.5802 6.95232 10.8241 6.82757 11.0336 6.65465C11.2431 6.48173 11.4131 6.26474 11.532 6.01865C11.6509 5.77257 11.7157 5.50324 11.7221 5.22925C11.7966 4.6433 11.6626 4.04958 11.3443 3.55496C11.0259 3.06034 10.5441 2.6973 9.98548 2.53116Z" stroke="#FF5E00" stroke-width="2" stroke-linecap="round" stroke-linejoin="round"/>
<path d="M2.88612 8.2933C3.44793 8.20602 4.02132 8.34059 4.48836 8.66931C4.9554 8.99804 5.28056 9.49594 5.39697 10.0606C5.4956 10.3227 5.54149 10.6023 5.53194 10.8827C5.52239 11.1631 5.45759 11.4388 5.34136 11.6934C5.22513 11.948 5.05984 12.1764 4.85523 12.3651C4.65062 12.5538 4.41084 12.6989 4.15005 12.792C3.58772 12.8803 3.01347 12.7462 2.54567 12.4174C2.07788 12.0885 1.75221 11.5901 1.6358 11.0248C1.53725 10.7624 1.49152 10.4827 1.50129 10.2021C1.51107 9.92146 1.57616 9.64569 1.69272 9.39105C1.80928 9.13642 1.97494 8.90808 2.17992 8.71953C2.38489 8.53099 2.62503 8.38605 2.88612 8.2933Z" stroke="#FF5E00" stroke-width="2" stroke-linecap="round" stroke-linejoin="round"/>
<path d="M18.0185 2.53116C18.284 2.48166 18.557 2.49123 18.8186 2.55919C19.0802 2.62715 19.3241 2.75189 19.5336 2.92482C19.7431 3.09774 19.9131 3.31473 20.032 3.56081C20.1509 3.8069 20.2157 4.07622 20.2221 4.35022C20.2966 4.93617 20.1626 5.52988 19.8443 6.0245C19.5259 6.51912 19.0441 6.88217 18.4855 7.04831C18.2199 7.0978 17.9469 7.08824 17.6853 7.02028C17.4237 6.95232 17.1798 6.82757 16.9703 6.65465C16.7608 6.48173 16.5908 6.26474 16.4719 6.01865C16.3531 5.77257 16.2882 5.50324 16.2818 5.22925C16.2073 4.6433 16.3413 4.04958 16.6597 3.55496C16.978 3.06034 17.4599 2.6973 18.0185 2.53116Z" stroke="#FF5E00" stroke-width="2" stroke-linecap="round" stroke-linejoin="round"/>
<path d="M25.1168 8.2933C24.555 8.20602 23.9816 8.34059 23.5145 8.66931C23.0475 8.99804 22.7223 9.49594 22.6059 10.0606C22.5073 10.3227 22.4614 10.6023 22.471 10.8827C22.4805 11.1631 22.5453 11.4388 22.6615 11.6934C22.7778 11.948 22.9431 12.1764 23.1477 12.3651C23.3523 12.5538 23.5921 12.6989 23.8529 12.792C24.4147 12.8793 24.988 12.7448 25.4551 12.416C25.9221 12.0873 26.2473 11.5894 26.3637 11.0248C26.4623 10.7626 26.5082 10.4831 26.4987 10.2027C26.4891 9.92222 26.4243 9.64657 26.3081 9.39197C26.1919 9.13737 26.0266 8.90898 25.822 8.72028C25.6173 8.53159 25.3776 8.3864 25.1168 8.2933Z" stroke="#FF5E00" stroke-width="2" stroke-linecap="round" stroke-linejoin="round"/>
<path d="M6.06641 22.0483C6.06641 22.9637 6.42469 23.8417 7.06245 24.489C7.7002 25.1363 8.56518 25.5 9.4671 25.5C11.7342 25.5 11.7342 24.3494 14.0014 24.3494C16.2685 24.3494 16.2685 25.5 18.5356 25.5C19.4375 25.5 20.3025 25.1363 20.9403 24.489C21.578 23.8417 21.9363 22.9637 21.9363 22.0483C21.9363 17.446 17.4021 11.6931 14.0014 11.6931C10.6007 11.6931 6.06641 17.446 6.06641 22.0483Z" stroke="#FF5E00" stroke-width="2" stroke-linecap="round" stroke-linejoin="round"/>
</svg>
