<svg width="24" height="24" viewBox="0 0 24 24" fill="none" xmlns="http://www.w3.org/2000/svg">
<g clip-path="url(#clip0_1245_30)">
<path d="M14.3085 15.1914L12.1675 17.3004C11.0511 16.6266 10.0139 15.8297 9.07547 14.9244C8.1719 13.9854 7.37535 12.9491 6.70047 11.8344L8.81047 9.69337C8.93709 9.56391 9.0226 9.39989 9.05623 9.22196C9.08986 9.04402 9.07011 8.86011 8.99947 8.69337L6.80047 3.56037C6.71356 3.35817 6.55689 3.19392 6.35903 3.09756C6.16116 3.00119 5.93525 2.97912 5.72247 3.03537L1.68847 4.10037C1.4865 4.15271 1.30836 4.27221 1.18332 4.43923C1.05828 4.60624 0.993799 4.81084 1.00047 5.01937C1.25738 9.71079 3.20814 14.1496 6.49047 17.5114C9.85345 20.7942 14.2938 22.7447 18.9865 23.0004C19.1947 23.0069 19.3991 22.9424 19.5657 22.8173C19.7324 22.6923 19.8515 22.5142 19.9035 22.3124L20.9695 18.2764C21.026 18.0637 21.0042 17.8378 20.908 17.6399C20.8118 17.442 20.6476 17.2853 20.4455 17.1984L15.3165 15.0004C15.1486 14.9281 14.9629 14.9077 14.7833 14.9417C14.6037 14.9757 14.4383 15.0627 14.3085 15.1914Z" stroke="#FF5E00" stroke-width="2" stroke-linecap="round" stroke-linejoin="round"/>
<path d="M14 1C16.3869 1 18.6761 1.94821 20.364 3.63604C22.0518 5.32387 23 7.61305 23 10" stroke="#FF5E00" stroke-width="2" stroke-linecap="round" stroke-linejoin="round"/>
<path d="M14 5C15.3261 5 16.5979 5.52678 17.5355 6.46447C18.4732 7.40215 19 8.67392 19 10" stroke="#FF5E00" stroke-width="2" stroke-linecap="round" stroke-linejoin="round"/>
</g>
<defs>
<clipPath id="clip0_1245_30">
<rect width="24" height="24" fill="white"/>
</clipPath>
</defs>
</svg>
