<svg width="12" height="12" viewBox="0 0 12 12" fill="none" xmlns="http://www.w3.org/2000/svg">
<path d="M7.98509 7.31205L6.70057 8.57821C6.03088 8.17415 5.4088 7.69598 4.84605 7.15276C4.30393 6.58918 3.82609 5.9671 3.42134 5.29798L4.68623 4.01327C4.7622 3.93558 4.81351 3.83717 4.83369 3.73039C4.85388 3.62362 4.84205 3.51326 4.79969 3.4132L3.48134 0.333171C3.42937 0.212166 3.33573 0.113809 3.21744 0.0559552C3.09915 -0.00189887 2.96403 -0.0154157 2.83663 0.0178582L0.412664 0.657757C0.291551 0.688859 0.184674 0.76036 0.109696 0.860443C0.0347189 0.960526 -0.00387027 1.0832 0.000306724 1.20819C0.154332 4.02339 1.32479 6.687 3.29425 8.70423C5.31164 10.6748 7.97572 11.8458 10.7914 11.9997C10.9164 12.0036 11.039 11.9649 11.1391 11.89C11.2392 11.8151 11.3108 11.7083 11.3423 11.5873L11.9816 9.16519C12.0155 9.03753 12.0023 8.90193 11.9445 8.78315C11.8868 8.66437 11.7882 8.57033 11.6669 8.5182L8.58999 7.19913C8.48938 7.15555 8.37806 7.14302 8.27029 7.16314C8.16251 7.18326 8.0632 7.23511 7.98509 7.31205Z" fill="white"/>
</svg>
