<svg width="107" height="44" viewBox="0 0 107 44" fill="none" xmlns="http://www.w3.org/2000/svg">
<rect x="13.7991" y="22.3492" width="2.75977" height="16.5586" rx="1.37988" transform="rotate(150 13.7991 22.3492)" fill="#FF6E05"/>
<rect x="5.51994" y="23.2683" width="2.75977" height="16.5586" rx="1.37988" transform="rotate(-150 5.51994 23.2683)" fill="#FF6E05"/>
<rect x="16.5586" y="14.3857" width="2.75977" height="16.5586" rx="1.37988" transform="rotate(90 16.5586 14.3857)" fill="#FF6E05"/>
<path d="M8.13694 22.5711C7.88292 23.0111 7.3203 23.1618 6.88031 22.9078C6.44032 22.6538 6.28956 22.0911 6.54359 21.6512L10.2423 15.2448C10.4963 14.8049 11.0589 14.6541 11.4989 14.9081C11.9389 15.1622 12.0897 15.7248 11.8356 16.1648L8.13694 22.5711Z" fill="white"/>
<path d="M8.13695 8.80539C7.88292 8.3654 7.3203 8.21465 6.88031 8.46868C6.44032 8.7227 6.28956 9.28532 6.54359 9.72531L10.2423 16.1316C10.4963 16.5716 11.0589 16.7224 11.4989 16.4683C11.9389 16.2143 12.0897 15.6517 11.8356 15.2117L8.13695 8.80539Z" fill="white"/>
<path d="M3.07811 22.5711C2.82408 23.0111 2.26146 23.1618 1.82147 22.9078C1.38148 22.6538 1.23073 22.0911 1.48475 21.6512L5.18344 15.2448C5.43747 14.8049 6.00009 14.6541 6.44008 14.9081C6.88007 15.1622 7.03082 15.7248 6.77679 16.1648L3.07811 22.5711Z" fill="white"/>
<path d="M3.07811 8.80539C2.82408 8.3654 2.26146 8.21465 1.82147 8.46868C1.38148 8.7227 1.23073 9.28532 1.48476 9.72531L5.18344 16.1316C5.43747 16.5716 6.00009 16.7224 6.44008 16.4683C6.88007 16.2143 7.03082 15.6517 6.77679 15.2117L3.07811 8.80539Z" fill="white"/>
<path d="M99.0241 32.7924C97.7788 32.7924 96.5751 32.6263 95.4128 32.2112C94.2505 31.8376 93.3373 31.3395 92.6732 30.6754V25.2376C93.5864 27.0226 94.6656 28.3924 95.8279 29.3471C96.9901 30.3433 98.1524 30.7999 99.3562 30.7999C100.186 30.7999 100.892 30.5924 101.432 30.0942C101.971 29.6376 102.262 29.015 102.262 28.1848C102.262 27.5207 102.013 26.9395 101.515 26.4414C101.017 25.9433 99.9788 25.3622 98.36 24.698C96.2015 23.8678 94.7486 22.9961 94.0845 22.166C93.3788 21.3358 93.0468 20.298 93.0468 19.0528C93.0468 17.3924 93.6694 16.0226 94.9147 14.8603C96.16 13.698 97.6543 13.1169 99.4392 13.1169C100.186 13.1169 100.892 13.2829 101.639 13.532C102.386 13.8226 103.009 14.1962 103.549 14.6112L105.79 13.1169V20.2565C104.586 18.4716 103.507 17.1848 102.511 16.3546C101.515 15.5245 100.56 15.1094 99.6467 15.1094C98.8996 15.1094 98.3184 15.3169 97.8618 15.732C97.4052 16.1471 97.1977 16.7282 97.1977 17.3924C97.1977 18.015 97.4052 18.5546 97.9034 19.0112C98.36 19.4678 99.3977 20.0075 101.017 20.6301C103.258 21.5433 104.752 22.4565 105.5 23.3282C106.247 24.2414 106.62 25.2792 106.62 26.5244C106.62 28.3093 105.873 29.8037 104.42 31.0075C102.926 32.2112 101.141 32.7924 99.0241 32.7924Z" fill="black"/>
<path d="M72.4123 30.5095V18.2643L69.1746 15.7322L77.3104 12.702V16.3133H78.0576C79.1368 15.1926 80.1745 14.3624 81.1708 13.8643C82.167 13.3662 83.1632 13.1171 84.2425 13.1171C85.8613 13.1171 87.1481 13.6983 88.1028 14.7775C89.016 15.8567 89.5142 17.3511 89.5142 19.219V30.5095L92.0877 32.3775H82.0425L84.616 30.5095V20.5473C84.616 19.219 84.2425 18.2228 83.5783 17.4756C82.9142 16.7699 81.9594 16.3964 80.7142 16.3964C80.1745 16.3964 79.6349 16.5209 79.0538 16.7699C78.4727 17.019 77.8915 17.3511 77.3104 17.8492V30.5095L79.8425 32.3775H69.8387L72.4123 30.5095Z" fill="black"/>
<path d="M61.129 21.5018V19.4263C61.129 17.932 60.6724 16.8528 59.8422 16.2301C59.012 15.649 57.7668 15.4829 56.1479 15.815V20.0905H51.0007C51.6649 18.1811 53.0347 16.5622 55.0271 15.1924C57.0196 13.8226 59.012 13.1169 61.0875 13.1169C62.4988 13.1169 63.6611 13.615 64.5328 14.5697C65.4045 15.5245 65.8611 16.8112 65.8611 18.3886V27.2301C65.8611 27.9358 65.9856 28.4754 66.3177 28.849C66.6498 29.2226 67.1064 29.3886 67.6875 29.3886C68.0611 29.3886 68.4347 29.3056 68.7667 29.1395C69.0988 28.9735 69.3894 28.7659 69.6384 28.4339C69.6384 29.6792 69.1818 30.6754 68.3101 31.5056C67.4384 32.3358 66.4007 32.7093 65.1554 32.7093C64.2007 32.7093 63.3705 32.4603 62.7064 31.9622C62.0007 31.4641 61.5026 30.7999 61.1705 29.8867H60.5479C59.7177 30.7999 58.8875 31.5056 58.0158 31.9622C57.1441 32.4603 56.2724 32.6678 55.3592 32.6678C54.197 32.6678 53.2007 32.2942 52.4121 31.5471C51.5819 30.7999 51.2083 29.8867 51.2083 28.7244C51.2083 27.6037 51.6234 26.6075 52.4536 25.7358C53.2837 24.9056 54.6536 24.0754 56.563 23.3282L61.129 21.5018ZM61.129 28.5169V22.9961L59.3026 23.7848C57.9743 24.366 57.0611 24.9471 56.563 25.4452C56.0649 25.9848 55.8573 26.649 55.8573 27.3961C55.8573 28.1018 56.0649 28.6414 56.5215 29.0565C56.9781 29.4716 57.6007 29.6376 58.3479 29.6376C58.846 29.6376 59.3026 29.5546 59.8007 29.3886C60.2573 29.2226 60.7139 28.932 61.129 28.5169Z" fill="black"/>
<path d="M40.3594 32.3773C42.0006 31.2051 42.9745 29.3125 42.9745 27.2957V5.27169L39.1142 2.82264L47.8726 0V27.3294C47.8726 29.3271 48.8295 31.2039 50.4462 32.3773H40.3594Z" fill="black"/>
<path d="M21.7222 42.1322V18.2643L18.526 15.7322L26.6203 12.702V15.7737H27.2844C28.1561 14.9435 29.1109 14.2794 30.1071 13.8228C31.1033 13.3662 32.0995 13.1171 33.1373 13.1171C35.4618 13.1171 37.3712 13.9888 38.8656 15.6492C40.3599 17.3511 41.1071 19.4681 41.1071 22.0416C41.1071 25.0718 40.0693 27.6039 38.0354 29.6794C35.9599 31.7548 33.5524 32.7926 30.7712 32.7926C29.9826 32.7926 29.2354 32.7511 28.5712 32.585C27.8656 32.4605 27.2014 32.2529 26.6203 32.0039V42.1322L30.7297 44.0001H19.1901L21.7222 42.1322ZM26.6203 17.2681V28.7662C26.9524 29.4718 27.4505 30.0114 28.1146 30.4265C28.7788 30.8416 29.5675 31.0077 30.4392 31.0077C32.0995 31.0077 33.4693 30.385 34.5071 29.0567C35.5448 27.7699 36.0844 25.985 36.0844 23.7435C36.0844 21.419 35.4618 19.5511 34.258 18.1813C33.0542 16.8115 31.4354 16.1058 29.4429 16.1058C28.8618 16.1058 28.3222 16.2303 27.7826 16.4379C27.2429 16.6869 26.8694 16.936 26.6203 17.2681Z" fill="black"/>
</svg>
