<svg width="33" height="32" viewBox="0 0 33 32" fill="none" xmlns="http://www.w3.org/2000/svg">
<rect width="5.36473" height="32.5618" rx="2.68236" transform="matrix(-0.860957 0.508677 -0.491373 -0.870949 27.2251 29.2712)" fill="#FF6E05"/>
<rect width="5.36473" height="32.5619" rx="2.68237" transform="matrix(-0.860957 -0.508677 0.491373 -0.870949 11.2251 31.0886)" fill="#FF6E05"/>
<rect x="32.5586" y="13.5217" width="5.45783" height="32" rx="2.72892" transform="rotate(90 32.5586 13.5217)" fill="#FF6E05"/>
<path d="M16.2836 29.71C15.7927 30.5801 14.7054 30.8782 13.8551 30.3759C13.0048 29.8735 12.7135 28.7608 13.2044 27.8907L20.3522 15.2213C20.8432 14.3512 21.9304 14.053 22.7807 14.5554C23.631 15.0578 23.9224 16.1704 23.4314 17.0406L16.2836 29.71Z" fill="white"/>
<path d="M16.2836 2.48636C15.7927 1.61621 14.7054 1.31808 13.8551 1.82046C13.0048 2.32284 12.7135 3.43549 13.2044 4.30563L20.3522 16.975C20.8432 17.8452 21.9304 18.1433 22.7807 17.6409C23.631 17.1386 23.9224 16.0259 23.4314 15.1558L16.2836 2.48636Z" fill="white"/>
<path d="M6.50774 29.71C6.01682 30.5801 4.92955 30.8782 4.07925 30.3759C3.22895 29.8735 2.93762 28.7608 3.42854 27.8907L10.5764 15.2213C11.0673 14.3512 12.1546 14.053 13.0049 14.5554C13.8552 15.0578 14.1465 16.1704 13.6556 17.0406L6.50774 29.71Z" fill="white"/>
<path d="M6.50774 2.48636C6.01682 1.61621 4.92955 1.31808 4.07925 1.82046C3.22895 2.32284 2.93762 3.43549 3.42854 4.30563L10.5764 16.975C11.0673 17.8452 12.1546 18.1433 13.0049 17.6409C13.8552 17.1386 14.1465 16.0259 13.6556 15.1558L6.50774 2.48636Z" fill="white"/>
</svg>
