<svg width="24" height="24" viewBox="0 0 24 24" fill="none" xmlns="http://www.w3.org/2000/svg">
<path d="M12 8.36719V12.0035L14.9091 14.9126" stroke="#383838" stroke-width="2" stroke-linecap="round" stroke-linejoin="round"/>
<path d="M5.43008 4.09766L4.8999 8.31365L9.03952 7.1602" stroke="#383838" stroke-width="2" stroke-linecap="round" stroke-linejoin="round"/>
<path d="M4.89963 8.31423C5.80086 6.57807 7.30696 5.23228 9.13318 4.5313C10.9594 3.83032 12.9792 3.82274 14.8106 4.50998C16.642 5.19723 18.1582 6.53167 19.0724 8.26101C19.9867 9.99035 20.2356 11.9947 19.7722 13.8952C19.3088 15.7956 18.1652 17.4604 16.5575 18.5748C14.9499 19.6892 12.9896 20.176 11.0474 19.9431C9.10518 19.7101 7.31562 18.7737 6.01705 17.3108C4.71847 15.8478 4.0009 13.9598 4 12.0037" stroke="#383838" stroke-width="2" stroke-linecap="round" stroke-linejoin="round"/>
</svg>
